<svg xmlns="http://www.w3.org/2000/svg" xmlns:xlink="http://www.w3.org/1999/xlink" width="500" zoomAndPan="magnify" viewBox="0 0 375 374.999991" height="500" preserveAspectRatio="xMidYMid meet" version="1.0"><defs><g/></defs><g fill="#404040" fill-opacity="1"><g transform="translate(70.116167, 200.137369)"><g><path d="M 27.011719 -0.644531 C 24.539062 -6.132812 21.867188 -11.574219 19.390625 -17.167969 C 23.351562 -18.601562 26.664062 -21.765625 26.664062 -27.800781 C 26.664062 -39.476562 15.535156 -39.574219 13.308594 -39.574219 L 0.496094 -39.574219 C 0.246094 -39.574219 0 -39.328125 0 -39.128906 L 0 -32.402344 L 13.308594 -32.402344 C 14.496094 -32.402344 19.144531 -32.15625 19.144531 -27.800781 C 19.144531 -23.449219 14.941406 -23.25 13.308594 -23.25 L 0 -23.25 L 0 -0.445312 C 0 -0.246094 0.246094 0 0.496094 0 L 6.976562 0 C 7.273438 0 7.519531 -0.246094 7.519531 -0.445312 L 7.519531 -15.980469 L 11.773438 -15.980469 L 18.996094 -0.296875 C 19.046875 -0.148438 19.34375 0 19.492188 0 L 26.566406 0 C 26.960938 0 27.160156 -0.296875 27.011719 -0.644531 Z M 27.011719 -0.644531 "/></g></g></g><g fill="#404040" fill-opacity="1"><g transform="translate(104.000707, 200.137369)"><g><path d="M 16.128906 -6.777344 L 12.167969 -6.777344 L 12.167969 -39.574219 L 4.601562 -39.574219 L 4.601562 -6.777344 L 0.542969 -6.777344 C 0.246094 -6.777344 0 -6.578125 0 -6.332031 L 0 -0.445312 C 0 -0.246094 0.246094 0 0.542969 0 L 16.128906 0 C 16.472656 0 16.671875 -0.246094 16.671875 -0.445312 L 16.671875 -6.332031 C 16.671875 -6.578125 16.472656 -6.777344 16.128906 -6.777344 Z M 16.128906 -6.777344 "/></g></g></g><g fill="#404040" fill-opacity="1"><g transform="translate(126.953531, 200.137369)"><g><path d="M 22.609375 -7.273438 C 17.808594 -7.074219 7.617188 -7.570312 7.617188 -19.789062 C 7.617188 -29.1875 14 -32.796875 22.609375 -32.351562 L 22.609375 -23.597656 L 30.175781 -23.597656 L 30.175781 -39.128906 C 30.175781 -39.328125 29.980469 -39.574219 29.632812 -39.574219 L 23.203125 -39.574219 C 13.503906 -39.574219 0 -37.351562 0 -19.789062 C 0 -2.871094 13.355469 0 23.203125 0 L 29.632812 0 C 29.980469 0 30.175781 -0.246094 30.175781 -0.445312 L 30.175781 -7.273438 Z M 22.609375 -7.273438 "/></g></g></g><g fill="#404040" fill-opacity="1"><g transform="translate(164.102738, 200.137369)"><g><path d="M 7.570312 -22.410156 L 7.570312 -39.128906 C 7.570312 -39.328125 7.371094 -39.574219 7.023438 -39.574219 L 0.542969 -39.574219 C 0.246094 -39.574219 0 -39.328125 0 -39.128906 L 0 -22.410156 Z M 29.582031 -39.574219 L 23.101562 -39.574219 C 22.804688 -39.574219 22.558594 -39.328125 22.558594 -39.128906 L 22.558594 -14.792969 L 7.570312 -14.792969 L 7.570312 -14.839844 L 0 -14.839844 L 0 -0.445312 C 0 -0.246094 0.246094 0 0.542969 0 L 7.023438 0 C 7.371094 0 7.570312 -0.246094 7.570312 -0.445312 L 7.570312 -7.421875 L 22.558594 -7.421875 L 22.558594 -0.445312 C 22.558594 -0.246094 22.804688 0 23.101562 0 L 29.582031 0 C 29.929688 0 30.128906 -0.246094 30.128906 -0.445312 L 30.128906 -39.128906 C 30.128906 -39.328125 29.929688 -39.574219 29.582031 -39.574219 Z M 29.582031 -39.574219 "/></g></g></g><g fill="#404040" fill-opacity="1"><g transform="translate(201.202484, 200.137369)"><g><path d="M 31.066406 -0.59375 L 16.027344 -39.277344 C 15.878906 -39.675781 15.1875 -39.675781 15.039062 -39.277344 L 0.0507812 -0.59375 C -0.0976562 -0.296875 0.0976562 0 0.542969 0 L 7.320312 0 C 7.519531 0 7.765625 -0.0976562 7.816406 -0.296875 L 15.535156 -22.359375 L 23.351562 -0.296875 C 23.398438 -0.0976562 23.648438 0 23.796875 0 L 30.621094 0 C 30.96875 0 31.214844 -0.296875 31.066406 -0.59375 Z M 31.066406 -0.59375 "/></g></g></g><g fill="#404040" fill-opacity="1"><g transform="translate(239.291532, 200.137369)"><g><path d="M 27.011719 -0.644531 C 24.539062 -6.132812 21.867188 -11.574219 19.390625 -17.167969 C 23.351562 -18.601562 26.664062 -21.765625 26.664062 -27.800781 C 26.664062 -39.476562 15.535156 -39.574219 13.308594 -39.574219 L 0.496094 -39.574219 C 0.246094 -39.574219 0 -39.328125 0 -39.128906 L 0 -32.402344 L 13.308594 -32.402344 C 14.496094 -32.402344 19.144531 -32.15625 19.144531 -27.800781 C 19.144531 -23.449219 14.941406 -23.25 13.308594 -23.25 L 0 -23.25 L 0 -0.445312 C 0 -0.246094 0.246094 0 0.496094 0 L 6.976562 0 C 7.273438 0 7.519531 -0.246094 7.519531 -0.445312 L 7.519531 -15.980469 L 11.773438 -15.980469 L 18.996094 -0.296875 C 19.046875 -0.148438 19.34375 0 19.492188 0 L 26.566406 0 C 26.960938 0 27.160156 -0.296875 27.011719 -0.644531 Z M 27.011719 -0.644531 "/></g></g></g><g fill="#404040" fill-opacity="1"><g transform="translate(273.176066, 200.137369)"><g><path d="M 7.023438 -39.574219 L 0.542969 -39.574219 C 0.246094 -39.574219 0 -39.328125 0 -39.128906 L 0 -23.597656 L 7.570312 -23.597656 L 7.570312 -32.351562 C 16.175781 -32.796875 22.558594 -29.1875 22.558594 -19.789062 C 22.558594 -7.570312 12.367188 -7.074219 7.570312 -7.273438 L 7.570312 -15.980469 L 0 -15.980469 L 0 -0.445312 C 0 -0.246094 0.246094 0 0.542969 0 L 7.023438 0 C 16.871094 0 30.175781 -2.871094 30.175781 -19.789062 C 30.175781 -37.351562 16.671875 -39.574219 7.023438 -39.574219 Z M 7.023438 -39.574219 "/></g></g></g><path stroke-linecap="butt" transform="matrix(-0.858632, -0.000000000000000105, 0.000000000000000106, -0.862944, 333.493226, 139.692824)" fill="none" stroke-linejoin="miter" d="M 0.00120925 4.999068 L 84.433298 4.999068 " stroke="#404040" stroke-width="10" stroke-opacity="1" stroke-miterlimit="4"/><path stroke-linecap="butt" transform="matrix(0.000000000000000053, -0.858202, 0.862944, 0.000000000000000053, 324.868195, 204.809108)" fill="none" stroke-linejoin="miter" d="M 0.000599394 5.000784 L 82.463161 5.000784 " stroke="#404040" stroke-width="10" stroke-opacity="1" stroke-miterlimit="4"/><path stroke-linecap="butt" transform="matrix(0.748914, 0, 0, 0.75, 30.187986, 217.286237)" fill="none" stroke-linejoin="miter" d="M -0.000648776 5.998559 L 97.150412 5.998559 " stroke="#404040" stroke-width="12" stroke-opacity="1" stroke-miterlimit="4"/><path stroke-linecap="butt" transform="matrix(0.000000000000000046, 0.750988, -0.75, 0.000000000000000046, 39.185455, 150.62747)" fill="none" stroke-linejoin="miter" d="M 0.00191234 6.002482 L 94.882119 6.002482 " stroke="#404040" stroke-width="12" stroke-opacity="1" stroke-miterlimit="4"/></svg>