<svg xmlns="http://www.w3.org/2000/svg" xmlns:xlink="http://www.w3.org/1999/xlink" width="250" zoomAndPan="magnify" viewBox="0 0 187.5 93.749997" height="125" preserveAspectRatio="xMidYMid meet" version="1.0"><defs><g/><clipPath id="41ec84eee1"><path d="M 137.058594 63.617188 L 167.5625 63.617188 L 167.5625 90.308594 L 137.058594 90.308594 Z M 137.058594 63.617188 " clip-rule="nonzero"/></clipPath><clipPath id="cf4182d136"><path d="M 152.308594 63.617188 L 167.5625 90.308594 L 137.058594 90.308594 L 152.308594 63.617188 " clip-rule="nonzero"/></clipPath><clipPath id="fcd63e9b9a"><path d="M 156 50 L 187 50 L 187 77 L 156 77 Z M 156 50 " clip-rule="nonzero"/></clipPath><clipPath id="f28ec1306e"><path d="M 149.160156 63.660156 L 164.359375 37.210938 L 187.503906 50.511719 L 172.300781 76.960938 Z M 149.160156 63.660156 " clip-rule="nonzero"/></clipPath><clipPath id="30b7977d96"><path d="M 156.761719 50.433594 L 187.503906 50.511719 L 172.300781 76.960938 L 156.761719 50.433594 " clip-rule="nonzero"/></clipPath></defs><g fill="#000000" fill-opacity="1"><g transform="translate(-10.064726, 89.571709)"><g><path d="M 55.386719 0 L 72.402344 0 L 48.804688 -37.753906 C 57.25 -40.113281 67.929688 -46.199219 67.929688 -61.597656 C 67.929688 -86.933594 38.871094 -86.933594 38.871094 -86.933594 L 9.933594 -86.933594 L 9.933594 -72.402344 L 23.71875 -50.667969 L 9.933594 -50.667969 L 9.933594 0 L 24.464844 0 L 24.464844 -36.261719 L 32.785156 -36.261719 Z M 40.734375 -50.792969 L 27.199219 -72.402344 L 38.871094 -72.402344 C 38.871094 -72.402344 53.402344 -72.402344 53.402344 -61.597656 C 53.402344 -53.027344 44.582031 -51.164062 40.734375 -50.792969 Z M 40.734375 -50.792969 "/></g></g></g><g fill="#000000" fill-opacity="1"><g transform="translate(60.965452, 89.571709)"><g><path d="M 24.339844 -86.933594 L 9.8125 -86.933594 L 9.8125 0 L 24.339844 0 C 45.949219 0 75.132812 -6.332031 75.132812 -43.464844 C 75.132812 -82.089844 45.453125 -86.933594 24.339844 -86.933594 Z M 24.339844 -14.15625 L 24.339844 -72.773438 C 24.339844 -72.773438 60.480469 -78.238281 60.480469 -43.464844 C 60.480469 -9.191406 24.339844 -14.15625 24.339844 -14.15625 Z M 24.339844 -14.15625 "/></g></g></g><g clip-path="url(#41ec84eee1)"><g clip-path="url(#cf4182d136)"><path fill="#000000" d="M 137.058594 63.617188 L 167.5625 63.617188 L 167.5625 90.308594 L 137.058594 90.308594 Z M 137.058594 63.617188 " fill-opacity="1" fill-rule="nonzero"/></g></g><g clip-path="url(#fcd63e9b9a)"><g clip-path="url(#f28ec1306e)"><g clip-path="url(#30b7977d96)"><path fill="#000000" d="M 149.160156 63.660156 L 164.359375 37.210938 L 187.503906 50.511719 L 172.300781 76.960938 Z M 149.160156 63.660156 " fill-opacity="1" fill-rule="nonzero"/></g></g></g></svg>