<svg xmlns="http://www.w3.org/2000/svg" xmlns:xlink="http://www.w3.org/1999/xlink" width="100" zoomAndPan="magnify" viewBox="0 0 75 187.499995" height="250" preserveAspectRatio="xMidYMid meet" version="1.0"><defs><g/><clipPath id="512e5bce78"><path d="M 61 139 L 67 139 L 67 187 L 61 187 Z M 61 139 " clip-rule="nonzero"/></clipPath></defs><g fill="#000000" fill-opacity="1"><g transform="translate(50.784956, 162.379866)"><g><path d="M -0.398438 -16.652344 C -3.78125 -15.128906 -7.136719 -13.480469 -10.582031 -11.957031 C -11.46875 -14.394531 -13.421875 -16.441406 -17.140625 -16.441406 C -24.339844 -16.441406 -24.398438 -9.578125 -24.398438 -8.203125 L -24.398438 -0.304688 C -24.398438 -0.152344 -24.246094 0 -24.125 0 L -19.976562 0 L -19.976562 -8.203125 C -19.976562 -8.9375 -19.824219 -11.804688 -17.140625 -11.804688 C -14.457031 -11.804688 -14.335938 -9.210938 -14.335938 -8.203125 L -14.335938 0 L -0.273438 0 C -0.152344 0 0 -0.152344 0 -0.304688 L 0 -4.300781 C 0 -4.484375 -0.152344 -4.636719 -0.273438 -4.636719 L -9.851562 -4.636719 L -9.851562 -7.257812 L -0.183594 -11.710938 C -0.0898438 -11.742188 0 -11.925781 0 -12.015625 L 0 -16.378906 C 0 -16.621094 -0.183594 -16.746094 -0.398438 -16.652344 Z M -0.398438 -16.652344 "/></g></g></g><g fill="#000000" fill-opacity="1"><g transform="translate(50.784956, 141.48889)"><g><path d="M -4.179688 -9.941406 L -4.179688 -7.503906 L -24.398438 -7.503906 L -24.398438 -2.835938 L -4.179688 -2.835938 L -4.179688 -0.335938 C -4.179688 -0.152344 -4.054688 0 -3.902344 0 L -0.273438 0 C -0.152344 0 0 -0.152344 0 -0.335938 L 0 -9.941406 C 0 -10.15625 -0.152344 -10.277344 -0.273438 -10.277344 L -3.902344 -10.277344 C -4.054688 -10.277344 -4.179688 -10.15625 -4.179688 -9.941406 Z M -4.179688 -9.941406 "/></g></g></g><g fill="#000000" fill-opacity="1"><g transform="translate(50.784956, 127.33769)"><g><path d="M -4.484375 -13.9375 C -4.363281 -10.980469 -4.667969 -4.695312 -12.199219 -4.695312 C -17.996094 -4.695312 -20.222656 -8.632812 -19.945312 -13.9375 L -14.546875 -13.9375 L -14.546875 -18.605469 L -24.125 -18.605469 C -24.246094 -18.605469 -24.398438 -18.484375 -24.398438 -18.269531 L -24.398438 -14.304688 C -24.398438 -8.328125 -23.027344 0 -12.199219 0 C -1.769531 0 0 -8.234375 0 -14.304688 L 0 -18.269531 C 0 -18.484375 -0.152344 -18.605469 -0.273438 -18.605469 L -4.484375 -18.605469 Z M -4.484375 -13.9375 "/></g></g></g><g fill="#000000" fill-opacity="1"><g transform="translate(50.784956, 104.433935)"><g><path d="M -13.816406 -4.667969 L -24.125 -4.667969 C -24.246094 -4.667969 -24.398438 -4.542969 -24.398438 -4.332031 L -24.398438 -0.335938 C -24.398438 -0.152344 -24.246094 0 -24.125 0 L -13.816406 0 Z M -24.398438 -18.238281 L -24.398438 -14.242188 C -24.398438 -14.058594 -24.246094 -13.90625 -24.125 -13.90625 L -9.121094 -13.90625 L -9.121094 -4.667969 L -9.148438 -4.667969 L -9.148438 0 L -0.273438 0 C -0.152344 0 0 -0.152344 0 -0.335938 L 0 -4.332031 C 0 -4.542969 -0.152344 -4.667969 -0.273438 -4.667969 L -4.574219 -4.667969 L -4.574219 -13.90625 L -0.273438 -13.90625 C -0.152344 -13.90625 0 -14.058594 0 -14.242188 L 0 -18.238281 C 0 -18.453125 -0.152344 -18.574219 -0.273438 -18.574219 L -24.125 -18.574219 C -24.246094 -18.574219 -24.398438 -18.453125 -24.398438 -18.238281 Z M -24.398438 -18.238281 "/></g></g></g><g fill="#000000" fill-opacity="1"><g transform="translate(50.784956, 81.560675)"><g><path d="M -0.367188 -19.152344 L -24.21875 -9.882812 C -24.460938 -9.789062 -24.460938 -9.363281 -24.21875 -9.273438 L -0.367188 -0.03125 C -0.183594 0.0625 0 -0.0625 0 -0.335938 L 0 -4.515625 C 0 -4.636719 -0.0625 -4.789062 -0.183594 -4.820312 L -13.785156 -9.578125 L -0.183594 -14.394531 C -0.0625 -14.425781 0 -14.578125 0 -14.671875 L 0 -18.878906 C 0 -19.09375 -0.183594 -19.246094 -0.367188 -19.152344 Z M -0.367188 -19.152344 "/></g></g></g><g fill="#000000" fill-opacity="1"><g transform="translate(50.784956, 58.077477)"><g><path d="M -0.398438 -16.652344 C -3.78125 -15.128906 -7.136719 -13.480469 -10.582031 -11.957031 C -11.46875 -14.394531 -13.421875 -16.441406 -17.140625 -16.441406 C -24.339844 -16.441406 -24.398438 -9.578125 -24.398438 -8.203125 L -24.398438 -0.304688 C -24.398438 -0.152344 -24.246094 0 -24.125 0 L -19.976562 0 L -19.976562 -8.203125 C -19.976562 -8.9375 -19.824219 -11.804688 -17.140625 -11.804688 C -14.457031 -11.804688 -14.335938 -9.210938 -14.335938 -8.203125 L -14.335938 0 L -0.273438 0 C -0.152344 0 0 -0.152344 0 -0.304688 L 0 -4.300781 C 0 -4.484375 -0.152344 -4.636719 -0.273438 -4.636719 L -9.851562 -4.636719 L -9.851562 -7.257812 L -0.183594 -11.710938 C -0.0898438 -11.742188 0 -11.925781 0 -12.015625 L 0 -16.378906 C 0 -16.621094 -0.183594 -16.746094 -0.398438 -16.652344 Z M -0.398438 -16.652344 "/></g></g></g><g fill="#000000" fill-opacity="1"><g transform="translate(50.784956, 37.186504)"><g><path d="M -24.398438 -4.332031 L -24.398438 -0.335938 C -24.398438 -0.152344 -24.246094 0 -24.125 0 L -14.546875 0 L -14.546875 -4.667969 L -19.945312 -4.667969 C -20.222656 -9.972656 -17.996094 -13.90625 -12.199219 -13.90625 C -4.667969 -13.90625 -4.363281 -7.625 -4.484375 -4.667969 L -9.851562 -4.667969 L -9.851562 0 L -0.273438 0 C -0.152344 0 0 -0.152344 0 -0.335938 L 0 -4.332031 C 0 -10.402344 -1.769531 -18.605469 -12.199219 -18.605469 C -23.027344 -18.605469 -24.398438 -10.277344 -24.398438 -4.332031 Z M -24.398438 -4.332031 "/></g></g></g><path stroke-linecap="butt" transform="matrix(0.000000000000000032, 0.529376, -0.532035, 0.000000000000000033, 13.519197, 0.00371)" fill="none" stroke-linejoin="miter" d="M 0.000370724 4.99934 L 84.430559 4.99934 " stroke="#000000" stroke-width="10" stroke-opacity="1" stroke-miterlimit="4"/><path stroke-linecap="butt" transform="matrix(-0.529111, 0.000000000000000065, -0.000000000000000065, -0.532035, 53.665601, 5.32133)" fill="none" stroke-linejoin="miter" d="M 0.00290777 5.00188 L 82.459936 5.00188 " stroke="#000000" stroke-width="10" stroke-opacity="1" stroke-miterlimit="4"/><g clip-path="url(#512e5bce78)"><path stroke-linecap="butt" transform="matrix(0.000000000000000032, -0.529376, 0.532035, 0.000000000000000033, 61.469915, 186.999227)" fill="none" stroke-linejoin="miter" d="M -0.00146005 4.997779 L 84.436107 4.997779 " stroke="#000000" stroke-width="10" stroke-opacity="1" stroke-miterlimit="4"/></g><path stroke-linecap="butt" transform="matrix(0.529111, 0, 0, 0.532035, 20.259436, 181.567907)" fill="none" stroke-linejoin="miter" d="M -0.00306776 4.997147 L 82.461343 4.997147 " stroke="#000000" stroke-width="10" stroke-opacity="1" stroke-miterlimit="4"/></svg>